<svg width="600" height="600" viewBox="0 0 600 600" fill="none" xmlns="http://www.w3.org/2000/svg">
<g clip-path="url(#clip0_4_2)">
<rect width="600" height="600" fill="white"/>
<path d="M332.61 200H307.986L266.802 137.648V200H242.178V98.912H266.802L307.986 161.552V98.912H332.61V200ZM426.203 158.528C426.203 160.832 426.059 163.232 425.771 165.728H370.043C370.427 170.72 372.011 174.56 374.795 177.248C377.675 179.84 381.179 181.136 385.307 181.136C391.451 181.136 395.723 178.544 398.123 173.36H424.331C422.987 178.64 420.539 183.392 416.987 187.616C413.531 191.84 409.163 195.152 403.883 197.552C398.603 199.952 392.699 201.152 386.171 201.152C378.299 201.152 371.291 199.472 365.147 196.112C359.003 192.752 354.203 187.952 350.747 181.712C347.291 175.472 345.563 168.176 345.563 159.824C345.563 151.472 347.243 144.176 350.603 137.936C354.059 131.696 358.859 126.896 365.003 123.536C371.147 120.176 378.203 118.496 386.171 118.496C393.947 118.496 400.859 120.128 406.907 123.392C412.955 126.656 417.659 131.312 421.019 137.36C424.475 143.408 426.203 150.464 426.203 158.528ZM401.003 152.048C401.003 147.824 399.563 144.464 396.683 141.968C393.803 139.472 390.203 138.224 385.883 138.224C381.755 138.224 378.251 139.424 375.371 141.824C372.587 144.224 370.859 147.632 370.187 152.048H401.003ZM554.538 119.648L532.794 200H505.578L492.906 147.872L479.802 200H452.73L430.842 119.648H455.466L466.842 177.104L480.378 119.648H506.442L520.122 176.816L531.354 119.648H554.538ZM165.832 351.008C158.44 351.008 151.816 349.808 145.96 347.408C140.104 345.008 135.4 341.456 131.848 336.752C128.392 332.048 126.568 326.384 126.376 319.76H152.584C152.968 323.504 154.264 326.384 156.472 328.4C158.68 330.32 161.56 331.28 165.112 331.28C168.76 331.28 171.64 330.464 173.752 328.832C175.864 327.104 176.92 324.752 176.92 321.776C176.92 319.28 176.056 317.216 174.328 315.584C172.696 313.952 170.632 312.608 168.136 311.552C165.736 310.496 162.28 309.296 157.768 307.952C151.24 305.936 145.912 303.92 141.784 301.904C137.656 299.888 134.104 296.912 131.128 292.976C128.152 289.04 126.664 283.904 126.664 277.568C126.664 268.16 130.072 260.816 136.888 255.536C143.704 250.16 152.584 247.472 163.528 247.472C174.664 247.472 183.64 250.16 190.456 255.536C197.272 260.816 200.92 268.208 201.4 277.712H174.76C174.568 274.448 173.368 271.904 171.16 270.08C168.952 268.16 166.12 267.2 162.664 267.2C159.688 267.2 157.288 268.016 155.464 269.648C153.64 271.184 152.728 273.44 152.728 276.416C152.728 279.68 154.264 282.224 157.336 284.048C160.408 285.872 165.208 287.84 171.736 289.952C178.264 292.16 183.544 294.272 187.576 296.288C191.704 298.304 195.256 301.232 198.232 305.072C201.208 308.912 202.696 313.856 202.696 319.904C202.696 325.664 201.208 330.896 198.232 335.6C195.352 340.304 191.128 344.048 185.56 346.832C179.992 349.616 173.416 351.008 165.832 351.008ZM242.474 281.024C244.874 277.28 248.186 274.256 252.41 271.952C256.634 269.648 261.578 268.496 267.242 268.496C273.866 268.496 279.866 270.176 285.242 273.536C290.618 276.896 294.842 281.696 297.914 287.936C301.082 294.176 302.666 301.424 302.666 309.68C302.666 317.936 301.082 325.232 297.914 331.568C294.842 337.808 290.618 342.656 285.242 346.112C279.866 349.472 273.866 351.152 267.242 351.152C261.674 351.152 256.73 350 252.41 347.696C248.186 345.392 244.874 342.416 242.474 338.768V388.304H217.85V269.648H242.474V281.024ZM277.61 309.68C277.61 303.536 275.882 298.736 272.426 295.28C269.066 291.728 264.89 289.952 259.898 289.952C255.002 289.952 250.826 291.728 247.37 295.28C244.01 298.832 242.33 303.68 242.33 309.824C242.33 315.968 244.01 320.816 247.37 324.368C250.826 327.92 255.002 329.696 259.898 329.696C264.794 329.696 268.97 327.92 272.426 324.368C275.882 320.72 277.61 315.824 277.61 309.68ZM310.688 309.68C310.688 301.424 312.224 294.176 315.296 287.936C318.464 281.696 322.736 276.896 328.112 273.536C333.488 270.176 339.488 268.496 346.112 268.496C351.776 268.496 356.72 269.648 360.944 271.952C365.264 274.256 368.576 277.28 370.88 281.024V269.648H395.504V350H370.88V338.624C368.48 342.368 365.12 345.392 360.8 347.696C356.576 350 351.632 351.152 345.968 351.152C339.44 351.152 333.488 349.472 328.112 346.112C322.736 342.656 318.464 337.808 315.296 331.568C312.224 325.232 310.688 317.936 310.688 309.68ZM370.88 309.824C370.88 303.68 369.152 298.832 365.696 295.28C362.336 291.728 358.208 289.952 353.312 289.952C348.416 289.952 344.24 291.728 340.784 295.28C337.424 298.736 335.744 303.536 335.744 309.68C335.744 315.824 337.424 320.72 340.784 324.368C344.24 327.92 348.416 329.696 353.312 329.696C358.208 329.696 362.336 327.92 365.696 324.368C369.152 320.816 370.88 315.968 370.88 309.824ZM437.943 283.04C440.823 278.624 444.423 275.168 448.743 272.672C453.063 270.08 457.863 268.784 463.143 268.784V294.848H456.375C450.231 294.848 445.623 296.192 442.551 298.88C439.479 301.472 437.943 306.08 437.943 312.704V350H413.319V269.648H437.943V283.04ZM524.016 350L499.536 316.304V350H474.912V243.44H499.536V302.336L523.872 269.648H554.256L520.848 309.968L554.544 350H524.016ZM325.215 482.144H287.487L281.439 500H255.663L292.239 398.912H320.751L357.327 500H331.263L325.215 482.144ZM318.879 463.136L306.351 426.128L293.967 463.136H318.879ZM393.083 431.024C395.483 427.28 398.795 424.256 403.019 421.952C407.243 419.648 412.187 418.496 417.851 418.496C424.475 418.496 430.475 420.176 435.851 423.536C441.227 426.896 445.451 431.696 448.523 437.936C451.691 444.176 453.275 451.424 453.275 459.68C453.275 467.936 451.691 475.232 448.523 481.568C445.451 487.808 441.227 492.656 435.851 496.112C430.475 499.472 424.475 501.152 417.851 501.152C412.283 501.152 407.339 500 403.019 497.696C398.795 495.392 395.483 492.416 393.083 488.768V538.304H368.459V419.648H393.083V431.024ZM428.219 459.68C428.219 453.536 426.491 448.736 423.035 445.28C419.675 441.728 415.499 439.952 410.507 439.952C405.611 439.952 401.435 441.728 397.979 445.28C394.619 448.832 392.939 453.68 392.939 459.824C392.939 465.968 394.619 470.816 397.979 474.368C401.435 477.92 405.611 479.696 410.507 479.696C415.403 479.696 419.579 477.92 423.035 474.368C426.491 470.72 428.219 465.824 428.219 459.68ZM490.818 431.024C493.218 427.28 496.53 424.256 500.754 421.952C504.978 419.648 509.922 418.496 515.586 418.496C522.21 418.496 528.21 420.176 533.586 423.536C538.962 426.896 543.186 431.696 546.258 437.936C549.426 444.176 551.01 451.424 551.01 459.68C551.01 467.936 549.426 475.232 546.258 481.568C543.186 487.808 538.962 492.656 533.586 496.112C528.21 499.472 522.21 501.152 515.586 501.152C510.018 501.152 505.074 500 500.754 497.696C496.53 495.392 493.218 492.416 490.818 488.768V538.304H466.194V419.648H490.818V431.024ZM525.954 459.68C525.954 453.536 524.226 448.736 520.77 445.28C517.41 441.728 513.234 439.952 508.242 439.952C503.346 439.952 499.17 441.728 495.714 445.28C492.354 448.832 490.674 453.68 490.674 459.824C490.674 465.968 492.354 470.816 495.714 474.368C499.17 477.92 503.346 479.696 508.242 479.696C513.138 479.696 517.314 477.92 520.77 474.368C524.226 470.72 525.954 465.824 525.954 459.68Z" fill="black"/>
</g>
<defs>
<clipPath id="clip0_4_2">
<rect width="600" height="600" fill="white"/>
</clipPath>
</defs>
</svg>
