<svg width="603" height="600" viewBox="0 0 603 600" fill="none" xmlns="http://www.w3.org/2000/svg">
<g clip-path="url(#clip0_4_2)" filter="url(#filter0_d_4_2)">
<path d="M97.36 181H72.736L31.552 118.648V181H6.928V79.912H31.552L72.736 142.552V79.912H97.36V181ZM139.833 99.64V120.088H172.809V139.096H139.833V161.272H177.129V181H115.209V79.912H177.129V99.64H139.833ZM332.219 79.912L305.868 181H276.06L259.932 114.472L243.228 181H213.42L187.788 79.912H214.14L228.684 153.496L246.684 79.912H273.756L291.036 153.496L305.724 79.912H332.219ZM43.504 332.008C36.112 332.008 29.488 330.808 23.632 328.408C17.776 326.008 13.072 322.456 9.52 317.752C6.064 313.048 4.24 307.384 4.048 300.76H30.256C30.64 304.504 31.936 307.384 34.144 309.4C36.352 311.32 39.232 312.28 42.784 312.28C46.432 312.28 49.312 311.464 51.424 309.832C53.536 308.104 54.592 305.752 54.592 302.776C54.592 300.28 53.728 298.216 52 296.584C50.368 294.952 48.304 293.608 45.808 292.552C43.408 291.496 39.952 290.296 35.44 288.952C28.912 286.936 23.584 284.92 19.456 282.904C15.328 280.888 11.776 277.912 8.8 273.976C5.824 270.04 4.336 264.904 4.336 258.568C4.336 249.16 7.744 241.816 14.56 236.536C21.376 231.16 30.256 228.472 41.2 228.472C52.336 228.472 61.312 231.16 68.128 236.536C74.944 241.816 78.592 249.208 79.072 258.712H52.432C52.24 255.448 51.04 252.904 48.832 251.08C46.624 249.16 43.792 248.2 40.336 248.2C37.36 248.2 34.96 249.016 33.136 250.648C31.312 252.184 30.4 254.44 30.4 257.416C30.4 260.68 31.936 263.224 35.008 265.048C38.08 266.872 42.88 268.84 49.408 270.952C55.936 273.16 61.216 275.272 65.248 277.288C69.376 279.304 72.928 282.232 75.904 286.072C78.88 289.912 80.368 294.856 80.368 300.904C80.368 306.664 78.88 311.896 75.904 316.6C73.024 321.304 68.8 325.048 63.232 327.832C57.664 330.616 51.088 332.008 43.504 332.008ZM172.562 262.456C172.562 268.312 171.218 273.688 168.53 278.584C165.842 283.384 161.714 287.272 156.146 290.248C150.578 293.224 143.666 294.712 135.41 294.712H120.146V331H95.5218V229.912H135.41C143.474 229.912 150.29 231.304 155.858 234.088C161.426 236.872 165.602 240.712 168.386 245.608C171.17 250.504 172.562 256.12 172.562 262.456ZM133.538 275.128C138.242 275.128 141.746 274.024 144.05 271.816C146.354 269.608 147.506 266.488 147.506 262.456C147.506 258.424 146.354 255.304 144.05 253.096C141.746 250.888 138.242 249.784 133.538 249.784H120.146V275.128H133.538ZM248.309 313.144H210.581L204.533 331H178.757L215.333 229.912H243.845L280.421 331H254.357L248.309 313.144ZM241.973 294.136L229.445 257.128L217.061 294.136H241.973ZM343.105 331L322.081 292.84H316.177V331H291.553V229.912H332.881C340.849 229.912 347.617 231.304 353.185 234.088C358.849 236.872 363.073 240.712 365.857 245.608C368.641 250.408 370.033 255.784 370.033 261.736C370.033 268.456 368.113 274.456 364.273 279.736C360.529 285.016 354.961 288.76 347.569 290.968L370.897 331H343.105ZM316.177 275.416H331.441C335.953 275.416 339.313 274.312 341.521 272.104C343.825 269.896 344.977 266.776 344.977 262.744C344.977 258.904 343.825 255.88 341.521 253.672C339.313 251.464 335.953 250.36 331.441 250.36H316.177V275.416ZM444.099 331L410.115 286.36V331H385.491V229.912H410.115V274.264L443.811 229.912H472.755L433.587 279.448L474.195 331H444.099ZM43.504 482.008C36.112 482.008 29.488 480.808 23.632 478.408C17.776 476.008 13.072 472.456 9.52 467.752C6.064 463.048 4.24 457.384 4.048 450.76H30.256C30.64 454.504 31.936 457.384 34.144 459.4C36.352 461.32 39.232 462.28 42.784 462.28C46.432 462.28 49.312 461.464 51.424 459.832C53.536 458.104 54.592 455.752 54.592 452.776C54.592 450.28 53.728 448.216 52 446.584C50.368 444.952 48.304 443.608 45.808 442.552C43.408 441.496 39.952 440.296 35.44 438.952C28.912 436.936 23.584 434.92 19.456 432.904C15.328 430.888 11.776 427.912 8.8 423.976C5.824 420.04 4.336 414.904 4.336 408.568C4.336 399.16 7.744 391.816 14.56 386.536C21.376 381.16 30.256 378.472 41.2 378.472C52.336 378.472 61.312 381.16 68.128 386.536C74.944 391.816 78.592 399.208 79.072 408.712H52.432C52.24 405.448 51.04 402.904 48.832 401.08C46.624 399.16 43.792 398.2 40.336 398.2C37.36 398.2 34.96 399.016 33.136 400.648C31.312 402.184 30.4 404.44 30.4 407.416C30.4 410.68 31.936 413.224 35.008 415.048C38.08 416.872 42.88 418.84 49.408 420.952C55.936 423.16 61.216 425.272 65.248 427.288C69.376 429.304 72.928 432.232 75.904 436.072C78.88 439.912 80.368 444.856 80.368 450.904C80.368 456.664 78.88 461.896 75.904 466.6C73.024 471.304 68.8 475.048 63.232 477.832C57.664 480.616 51.088 482.008 43.504 482.008ZM120.146 379.912V481H95.5218V379.912H120.146ZM210.711 379.912V399.64H183.927V481H159.303V399.64H132.519V379.912H210.711ZM247.693 399.64V420.088H280.669V439.096H247.693V461.272H284.989V481H223.069V379.912H284.989V399.64H247.693Z" fill="black"/>
</g>
<defs>
<filter id="filter0_d_4_2" x="-1" y="0" width="608" height="608" filterUnits="userSpaceOnUse" color-interpolation-filters="sRGB">
<feFlood flood-opacity="0" result="BackgroundImageFix"/>
<feColorMatrix in="SourceAlpha" type="matrix" values="0 0 0 0 0 0 0 0 0 0 0 0 0 0 0 0 0 0 127 0" result="hardAlpha"/>
<feOffset dy="4"/>
<feGaussianBlur stdDeviation="2"/>
<feComposite in2="hardAlpha" operator="out"/>
<feColorMatrix type="matrix" values="0 0 0 0 0 0 0 0 0 0 0 0 0 0 0 0 0 0 0.25 0"/>
<feBlend mode="normal" in2="BackgroundImageFix" result="effect1_dropShadow_4_2"/>
<feBlend mode="normal" in="SourceGraphic" in2="effect1_dropShadow_4_2" result="shape"/>
</filter>
<clipPath id="clip0_4_2">
<rect width="600" height="600" fill="white" transform="translate(3)"/>
</clipPath>
</defs>
</svg>
