<svg width="608" height="608" viewBox="0 0 608 608" fill="none" xmlns="http://www.w3.org/2000/svg">
<g clip-path="url(#clip0_4_2)" filter="url(#filter0_d_4_2)">
<rect width="600" height="600" transform="translate(4)" fill="white"/>
<path d="M98.36 181H73.736L32.552 118.648V181H7.928V79.912H32.552L73.736 142.552V79.912H98.36V181ZM140.833 99.64V120.088H173.809V139.096H140.833V161.272H178.129V181H116.209V79.912H178.129V99.64H140.833ZM333.219 79.912L306.868 181H277.06L260.932 114.472L244.228 181H214.42L188.788 79.912H215.14L229.684 153.496L247.684 79.912H274.756L292.036 153.496L306.724 79.912H333.219ZM44.504 332.008C37.112 332.008 30.488 330.808 24.632 328.408C18.776 326.008 14.072 322.456 10.52 317.752C7.064 313.048 5.24 307.384 5.048 300.76H31.256C31.64 304.504 32.936 307.384 35.144 309.4C37.352 311.32 40.232 312.28 43.784 312.28C47.432 312.28 50.312 311.464 52.424 309.832C54.536 308.104 55.592 305.752 55.592 302.776C55.592 300.28 54.728 298.216 53 296.584C51.368 294.952 49.304 293.608 46.808 292.552C44.408 291.496 40.952 290.296 36.44 288.952C29.912 286.936 24.584 284.92 20.456 282.904C16.328 280.888 12.776 277.912 9.8 273.976C6.824 270.04 5.336 264.904 5.336 258.568C5.336 249.16 8.744 241.816 15.56 236.536C22.376 231.16 31.256 228.472 42.2 228.472C53.336 228.472 62.312 231.16 69.128 236.536C75.944 241.816 79.592 249.208 80.072 258.712H53.432C53.24 255.448 52.04 252.904 49.832 251.08C47.624 249.16 44.792 248.2 41.336 248.2C38.36 248.2 35.96 249.016 34.136 250.648C32.312 252.184 31.4 254.44 31.4 257.416C31.4 260.68 32.936 263.224 36.008 265.048C39.08 266.872 43.88 268.84 50.408 270.952C56.936 273.16 62.216 275.272 66.248 277.288C70.376 279.304 73.928 282.232 76.904 286.072C79.88 289.912 81.368 294.856 81.368 300.904C81.368 306.664 79.88 311.896 76.904 316.6C74.024 321.304 69.8 325.048 64.232 327.832C58.664 330.616 52.088 332.008 44.504 332.008ZM173.562 262.456C173.562 268.312 172.218 273.688 169.53 278.584C166.842 283.384 162.714 287.272 157.146 290.248C151.578 293.224 144.666 294.712 136.41 294.712H121.146V331H96.5218V229.912H136.41C144.474 229.912 151.29 231.304 156.858 234.088C162.426 236.872 166.602 240.712 169.386 245.608C172.17 250.504 173.562 256.12 173.562 262.456ZM134.538 275.128C139.242 275.128 142.746 274.024 145.05 271.816C147.354 269.608 148.506 266.488 148.506 262.456C148.506 258.424 147.354 255.304 145.05 253.096C142.746 250.888 139.242 249.784 134.538 249.784H121.146V275.128H134.538ZM249.309 313.144H211.581L205.533 331H179.757L216.333 229.912H244.845L281.421 331H255.357L249.309 313.144ZM242.973 294.136L230.445 257.128L218.061 294.136H242.973ZM344.105 331L323.081 292.84H317.177V331H292.553V229.912H333.881C341.849 229.912 348.617 231.304 354.185 234.088C359.849 236.872 364.073 240.712 366.857 245.608C369.641 250.408 371.033 255.784 371.033 261.736C371.033 268.456 369.113 274.456 365.273 279.736C361.529 285.016 355.961 288.76 348.569 290.968L371.897 331H344.105ZM317.177 275.416H332.441C336.953 275.416 340.313 274.312 342.521 272.104C344.825 269.896 345.977 266.776 345.977 262.744C345.977 258.904 344.825 255.88 342.521 253.672C340.313 251.464 336.953 250.36 332.441 250.36H317.177V275.416ZM445.099 331L411.115 286.36V331H386.491V229.912H411.115V274.264L444.811 229.912H473.755L434.587 279.448L475.195 331H445.099ZM44.504 482.008C37.112 482.008 30.488 480.808 24.632 478.408C18.776 476.008 14.072 472.456 10.52 467.752C7.064 463.048 5.24 457.384 5.048 450.76H31.256C31.64 454.504 32.936 457.384 35.144 459.4C37.352 461.32 40.232 462.28 43.784 462.28C47.432 462.28 50.312 461.464 52.424 459.832C54.536 458.104 55.592 455.752 55.592 452.776C55.592 450.28 54.728 448.216 53 446.584C51.368 444.952 49.304 443.608 46.808 442.552C44.408 441.496 40.952 440.296 36.44 438.952C29.912 436.936 24.584 434.92 20.456 432.904C16.328 430.888 12.776 427.912 9.8 423.976C6.824 420.04 5.336 414.904 5.336 408.568C5.336 399.16 8.744 391.816 15.56 386.536C22.376 381.16 31.256 378.472 42.2 378.472C53.336 378.472 62.312 381.16 69.128 386.536C75.944 391.816 79.592 399.208 80.072 408.712H53.432C53.24 405.448 52.04 402.904 49.832 401.08C47.624 399.16 44.792 398.2 41.336 398.2C38.36 398.2 35.96 399.016 34.136 400.648C32.312 402.184 31.4 404.44 31.4 407.416C31.4 410.68 32.936 413.224 36.008 415.048C39.08 416.872 43.88 418.84 50.408 420.952C56.936 423.16 62.216 425.272 66.248 427.288C70.376 429.304 73.928 432.232 76.904 436.072C79.88 439.912 81.368 444.856 81.368 450.904C81.368 456.664 79.88 461.896 76.904 466.6C74.024 471.304 69.8 475.048 64.232 477.832C58.664 480.616 52.088 482.008 44.504 482.008ZM121.146 379.912V481H96.5218V379.912H121.146ZM211.711 379.912V399.64H184.927V481H160.303V399.64H133.519V379.912H211.711ZM248.693 399.64V420.088H281.669V439.096H248.693V461.272H285.989V481H224.069V379.912H285.989V399.64H248.693Z" fill="black"/>
</g>
<defs>
<filter id="filter0_d_4_2" x="0" y="0" width="608" height="608" filterUnits="userSpaceOnUse" color-interpolation-filters="sRGB">
<feFlood flood-opacity="0" result="BackgroundImageFix"/>
<feColorMatrix in="SourceAlpha" type="matrix" values="0 0 0 0 0 0 0 0 0 0 0 0 0 0 0 0 0 0 127 0" result="hardAlpha"/>
<feOffset dy="4"/>
<feGaussianBlur stdDeviation="2"/>
<feComposite in2="hardAlpha" operator="out"/>
<feColorMatrix type="matrix" values="0 0 0 0 0 0 0 0 0 0 0 0 0 0 0 0 0 0 0.25 0"/>
<feBlend mode="normal" in2="BackgroundImageFix" result="effect1_dropShadow_4_2"/>
<feBlend mode="normal" in="SourceGraphic" in2="effect1_dropShadow_4_2" result="shape"/>
</filter>
<clipPath id="clip0_4_2">
<rect width="600" height="600" fill="white" transform="translate(4)"/>
</clipPath>
</defs>
</svg>
